<?xml version="1.0" standalone="no"?>
<!DOCTYPE svg PUBLIC "-//W3C//DTD SVG 20010904//EN"
 "http://www.w3.org/TR/2001/REC-SVG-20010904/DTD/svg10.dtd">
<svg version="1.0" xmlns="http://www.w3.org/2000/svg"
 width="1024.000000pt" height="624.000000pt" viewBox="0 312 1024.000000 312.000000"
 preserveAspectRatio="xMidYMid meet">

<g transform="translate(0.000000,1024.000000) scale(0.100000,-0.100000)"
fill="#000000" stroke="none">
<path d="M3440 8099 c-215 -17 -419 -168 -522 -386 -74 -157 -76 -411 -4 -568
44 -97 93 -154 230 -266 4 -4 -1 -48 -13 -98 -60 -253 -41 -616 40 -800 10
-24 19 -47 19 -51 0 -4 -24 -10 -52 -14 -121 -15 -260 -83 -321 -156 -79 -93
-111 -233 -83 -367 31 -155 106 -266 294 -437 89 -80 194 -168 263 -220 45
-34 48 -48 15 -64 -60 -27 -165 -198 -197 -318 -29 -114 -32 -167 -16 -271 20
-121 58 -199 145 -294 l70 -75 -65 -11 c-48 -9 -73 -19 -94 -39 -33 -31 -31
-49 6 -100 l23 -31 1634 4 c1774 4 1656 0 1694 58 20 31 12 87 -17 116 -18 18
-30 19 -286 12 l-267 -6 35 31 c51 44 139 175 155 230 17 57 18 144 2 161 -11
11 -9 12 7 8 11 -4 49 -13 85 -21 36 -8 133 -36 215 -61 206 -63 304 -79 440
-72 152 7 233 31 580 168 165 66 342 136 394 156 146 58 218 119 279 238 54
107 55 114 59 632 5 497 -1 614 -34 702 -26 72 -77 145 -150 218 -61 61 -79
72 -166 106 -54 20 -162 58 -240 83 -78 25 -227 75 -332 110 -320 110 -387
126 -550 127 l-140 2 -155 -57 c-95 -35 -157 -53 -161 -47 -3 6 -9 57 -12 113
-5 96 -38 269 -58 308 -7 13 9 34 75 100 91 92 140 176 171 298 23 88 16 307
-13 397 -57 178 -212 346 -389 418 -58 25 -85 29 -187 33 -141 5 -214 -7 -313
-53 -88 -40 -150 -91 -205 -166 l-41 -57 -63 29 c-95 43 -199 69 -302 76 l-93
6 -14 34 c-36 86 -99 133 -178 133 -58 0 -123 -42 -182 -118 -45 -58 -48 -60
-103 -65 -31 -3 -66 -7 -77 -10 -157 -43 -213 -61 -231 -72 -19 -12 -23 -9
-55 33 -58 78 -191 177 -282 210 -54 19 -172 29 -267 21z m1208 -247 c11 -26
27 -72 37 -102 34 -107 130 -221 197 -234 51 -10 65 -7 97 20 45 38 43 82 -9
150 -22 29 -40 56 -40 59 0 23 166 -25 303 -89 134 -62 217 -115 336 -216 213
-179 354 -379 439 -620 51 -147 72 -250 75 -373 l2 -99 -105 -38 c-58 -20
-113 -41 -122 -45 -16 -7 -18 1 -18 92 0 183 -51 305 -180 434 -95 94 -160
128 -262 136 -176 13 -337 -83 -403 -242 -43 -105 -38 -300 11 -412 34 -79
110 -180 169 -224 67 -51 122 -69 207 -69 63 0 69 -2 62 -17 -54 -124 -59
-152 -59 -345 l0 -186 -40 -20 c-88 -43 -355 -115 -470 -128 -27 -3 -74 -10
-104 -15 -77 -13 -142 -11 -278 6 -237 31 -387 74 -578 166 -177 84 -370 243
-460 379 -53 80 -147 296 -172 396 -25 99 -24 377 1 494 24 115 68 239 112
319 87 157 261 357 419 480 121 95 373 214 479 227 40 4 42 3 68 -40 32 -53
121 -126 153 -126 27 0 75 52 75 81 0 11 -11 42 -25 69 -34 68 -33 110 6 154
16 19 36 33 44 30 7 -3 22 -26 33 -52z m1236 -264 c54 -16 131 -89 152 -143
21 -55 15 -149 -12 -194 -10 -17 -21 -31 -24 -31 -3 1 -23 31 -45 68 -24 39
-85 112 -152 179 -62 62 -107 115 -102 119 41 25 103 25 183 2z m-2285 1 c38
-13 39 -21 5 -40 -40 -21 -186 -179 -239 -259 l-48 -73 -19 38 c-26 50 -34
135 -18 177 44 110 121 167 226 168 34 0 75 -5 93 -11z m1791 -906 c42 -38 51
-97 20 -135 -19 -25 -28 -28 -76 -28 -48 0 -60 4 -85 29 -46 47 -38 115 19
145 43 24 88 20 122 -11z m1518 -357 c64 -19 198 -62 297 -96 99 -34 209 -70
245 -81 146 -42 330 -112 330 -124 0 -14 -196 -114 -265 -135 -22 -7 -112 -43
-200 -80 -219 -93 -342 -131 -441 -137 -74 -5 -93 -2 -205 32 -68 21 -180 59
-249 85 -69 27 -170 63 -225 80 -55 18 -149 51 -210 75 -60 23 -131 50 -157
59 -27 10 -48 21 -48 25 0 12 354 147 765 292 145 51 202 52 363 5z m-1126
-500 c73 -19 189 -56 258 -81 69 -26 170 -62 225 -80 174 -58 353 -124 393
-144 52 -26 98 -81 114 -133 20 -66 19 -1138 -1 -1162 -32 -39 -70 -49 -135
-36 -69 13 -488 151 -635 209 -53 21 -121 46 -151 56 -132 43 -201 100 -260
218 l-30 60 0 492 c0 535 2 554 57 609 14 14 27 26 29 26 2 0 63 -15 136 -34z
m2143 22 c15 -7 36 -33 53 -67 l27 -56 3 -494 c3 -543 3 -546 -58 -630 -44
-60 -86 -83 -300 -166 -107 -42 -274 -110 -370 -152 -96 -42 -188 -76 -203
-76 -34 0 -93 53 -106 97 -5 17 -13 245 -17 506 -7 506 -4 560 39 629 50 82
71 97 230 159 256 101 610 239 642 250 17 6 31 11 32 11 1 1 14 -4 28 -11z
m-4758 -206 c35 -28 63 -84 63 -128 0 -51 -42 -137 -81 -165 -48 -34 -90 -35
-127 -4 -69 58 -82 140 -34 216 58 91 127 122 179 81z m1679 -676 c167 -22
362 -93 444 -162 l31 -26 -82 -40 c-139 -68 -269 -218 -318 -368 -26 -79 -36
-226 -22 -317 13 -83 51 -172 92 -213 l28 -28 -47 -20 c-73 -32 -195 -50 -337
-52 -137 -1 -201 8 -300 43 -80 27 -89 35 -68 55 9 9 35 55 57 102 l41 85 0
135 c0 115 -3 145 -23 201 -45 130 -125 239 -253 341 -43 35 -79 68 -79 74 0
25 163 113 290 158 130 46 343 58 546 32z m782 -618 c21 -15 70 -41 111 -59
41 -18 69 -35 63 -37 -6 -2 -25 -45 -42 -96 -37 -111 -77 -163 -156 -202 -46
-22 -63 -26 -105 -21 -87 11 -172 75 -206 154 -18 45 -16 131 6 178 30 67 71
106 146 140 l70 32 38 -31 c22 -17 55 -43 75 -58z m-1819 62 c124 -63 177
-183 139 -314 -18 -61 -101 -140 -168 -160 -48 -14 -58 -14 -106 0 -72 21
-128 64 -163 126 -40 70 -47 122 -27 192 31 105 121 175 229 176 38 0 71 -7
96 -20z"/>
<path d="M3860 6923 c-65 -13 -169 -74 -221 -131 -163 -175 -201 -424 -94
-602 103 -171 272 -248 447 -206 157 37 312 208 349 385 6 30 9 98 7 151 -3
88 -7 104 -41 173 -26 53 -54 91 -96 130 -85 79 -137 101 -241 103 -47 1 -96
0 -110 -3z m189 -227 c51 -27 64 -89 31 -143 -19 -32 -22 -33 -83 -33 -69 0
-102 16 -118 57 -32 85 82 164 170 119z"/>
<path d="M4593 6413 c-12 -2 -33 -18 -47 -34 -14 -16 -31 -29 -39 -29 -8 0
-33 -20 -56 -46 -37 -39 -42 -49 -36 -77 22 -103 128 -170 210 -131 34 16 38
16 75 -1 71 -32 161 9 201 92 25 53 19 85 -21 114 -47 33 -66 33 -98 -2 -26
-28 -33 -31 -46 -20 -9 7 -13 17 -10 22 3 5 0 9 -6 9 -7 0 -9 8 -5 21 4 12 8
28 9 35 1 7 6 17 11 21 4 4 5 2 1 -4 -4 -7 -2 -13 3 -13 21 0 11 27 -14 38
-25 12 -87 14 -132 5z"/>
<path d="M3503 6030 c-12 -5 -29 -20 -39 -34 -15 -24 -15 -28 2 -53 26 -41 56
-62 87 -63 32 0 67 31 67 60 0 33 -26 75 -55 88 -30 14 -32 14 -62 2z"/>
<path d="M6715 6276 c-5 -3 -27 -7 -47 -11 -52 -8 -98 -49 -98 -87 0 -38 44
-83 96 -97 64 -18 183 -13 232 9 88 40 86 128 -5 166 -32 14 -158 27 -178 20z"/>
<path d="M6185 6122 c-75 -13 -125 -52 -125 -97 0 -60 72 -96 195 -98 95 -1
137 16 162 69 16 33 16 35 -3 62 -11 15 -37 35 -57 45 -35 17 -126 28 -172 19z"/>
<path d="M7245 6106 c-92 -26 -121 -99 -60 -153 67 -59 236 -58 311 2 51 40
30 110 -42 141 -49 21 -152 26 -209 10z"/>
<path d="M6732 5947 c-44 -14 -92 -62 -92 -91 0 -58 81 -110 170 -108 80 1
137 20 160 52 29 40 25 68 -14 104 -54 52 -144 69 -224 43z"/>
<path d="M5772 5653 c-66 -32 -93 -100 -72 -180 29 -119 145 -179 237 -123 64
39 84 139 45 217 -24 47 -47 68 -95 88 -46 19 -73 19 -115 -2z"/>
<path d="M6445 5425 c-45 -16 -91 -62 -101 -101 -13 -50 32 -145 87 -186 34
-25 98 -33 144 -18 104 34 100 223 -7 288 -48 28 -78 32 -123 17z"/>
<path d="M6095 5196 c-71 -32 -103 -116 -76 -199 24 -73 131 -137 202 -122 71
16 118 94 104 176 -9 54 -58 117 -108 140 -49 22 -81 23 -122 5z"/>
<path d="M5774 4901 c-48 -29 -64 -59 -64 -119 0 -82 35 -139 107 -176 66 -33
136 -8 173 63 23 46 25 73 9 122 -37 108 -143 160 -225 110z"/>
<path d="M6422 4713 c-67 -33 -98 -116 -69 -184 73 -174 276 -187 307 -18 26
139 -118 261 -238 202z"/>
<path d="M7731 5644 c-55 -49 -81 -101 -81 -161 0 -62 26 -112 70 -135 45 -24
76 -23 125 5 53 29 90 101 89 172 -2 88 -44 144 -117 152 -40 5 -48 2 -86 -33z"/>
<path d="M7172 5449 c-88 -44 -130 -165 -87 -249 45 -87 129 -99 200 -27 128
127 37 350 -113 276z"/>
<path d="M7465 5224 c-72 -39 -108 -100 -109 -184 -2 -123 106 -198 201 -141
42 26 82 97 90 158 14 121 -90 217 -182 167z"/>
<path d="M7733 4935 c-118 -95 -102 -282 27 -310 63 -14 146 63 165 153 9 46
-12 125 -40 152 -16 15 -40 24 -72 27 -40 3 -53 0 -80 -22z"/>
<path d="M7154 4728 c-84 -57 -114 -149 -75 -233 65 -144 206 -116 257 52 27
87 -3 170 -72 199 -47 20 -56 18 -110 -18z"/>
<path d="M7050 3730 c-30 -4 -111 -9 -180 -10 -69 -1 -133 -4 -142 -8 -9 -4
-26 -20 -38 -35 -25 -31 -22 -60 9 -98 17 -22 27 -24 177 -30 88 -4 195 -10
239 -14 73 -6 83 -4 115 17 58 39 65 98 17 153 -18 22 -32 27 -82 30 -33 2
-85 0 -115 -5z"/>
<path d="M7554 3730 c-12 -5 -32 -29 -44 -55 -19 -40 -21 -50 -10 -76 21 -49
44 -59 145 -59 82 0 94 2 112 23 36 39 43 61 32 100 -16 59 -49 77 -138 76
-42 0 -86 -4 -97 -9z"/>
<path d="M2833 3685 c-30 -30 -34 -40 -29 -67 8 -42 23 -58 73 -80 53 -23 102
-16 138 20 32 32 40 65 25 102 -18 43 -51 60 -116 60 -51 0 -59 -3 -91 -35z"/>
</g>
</svg>