<svg width="800" height="600" xmlns="http://www.w3.org/2000/svg">

 <g>
  <title>Layer 1</title>
  <g stroke="null">
   <g stroke="null" fill="#000000" transform="translate(0 1024) scale(0.1 -0.1)">
    <path stroke="null" d="m1675.69522,9810.18734c-260.63982,-19.45136 -507.94459,-192.22518 -632.80924,-441.66023c-89.70859,-179.639 -92.13315,-470.26516 -4.84911,-649.90417c53.34024,-110.98716 112.74188,-176.20641 278.824,-304.35653c4.84911,-4.57679 -1.21228,-54.92148 -15.75962,-112.13135c-72.73669,-289.48196 -49.70341,-704.82564 48.49113,-915.35798c12.12278,-27.46074 23.03329,-53.77728 23.03329,-58.35407c0,-4.57679 -29.09468,-11.44197 -63.03847,-16.01876c-146.68567,-17.16296 -315.19234,-94.96839 -389.14132,-178.49481c-95.76998,-106.41037 -134.56289,-266.59801 -100.61909,-419.92047c37.58063,-177.35061 128.50149,-304.35653 356.4098,-500.0143c107.89276,-91.5358 235.18198,-192.22518 318.82918,-251.72344c54.55252,-38.90271 58.18936,-54.92148 18.18417,-73.22864c-72.73669,-30.89333 -200.02591,-226.5511 -238.81881,-363.8548c-35.15607,-130.43851 -38.7929,-191.08098 -19.39645,-310.07752c24.24556,-138.44789 70.31214,-227.6953 175.78035,-336.39406l84.85948,-85.81481l-78.79809,-12.58617c-58.18936,-10.29778 -88.49631,-21.73975 -113.95416,-44.6237c-40.00518,-35.47012 -37.58063,-56.06568 7.27367,-114.41975l27.8824,-35.47012l1980.86266,4.57679c2150.58161,4.57679 2007.53278,0 2053.59935,66.36345c24.24556,35.47012 14.54734,99.54518 -20.60873,132.72691c-21.82101,20.59555 -36.36835,21.73975 -346.71158,13.73037l-323.67829,-6.86518l42.42974,35.47012c61.82619,50.34469 168.50668,200.23456 187.90313,263.16542c20.60873,65.21926 21.82101,164.76444 2.42456,184.21579c-13.33506,12.58617 -10.9105,13.73037 8.48595,9.15358c13.33506,-4.57679 59.40163,-14.87457 103.04365,-24.02815c43.64202,-9.15358 161.23301,-41.19111 260.63982,-69.79605c249.72932,-72.08444 368.53259,-90.3916 533.40243,-82.38222c184.26629,8.00938 282.46083,35.47012 703.12138,192.22518c200.02591,75.51703 414.59916,155.61086 477.63763,178.49481c176.99262,66.36345 264.27666,136.1595 338.22563,272.319c65.46303,122.42913 66.6753,130.43851 71.52442,723.1328c6.06139,568.66615 -1.21228,702.53725 -41.21746,803.22663c-31.51923,82.38222 -93.34543,165.90863 -181.84174,249.43505c-73.94897,69.79605 -95.76998,82.38222 -201.23819,121.28493c-65.46303,22.88395 -196.38908,66.36345 -290.94678,94.96839c-94.5577,28.60494 -275.18716,85.81481 -402.47638,125.86172c-387.92904,125.86172 -469.15168,144.16888 -666.75304,145.31308l-169.71895,2.28839l-187.90313,-65.21926c-115.16643,-40.04691 -190.32768,-60.64247 -195.1768,-53.77728c-3.63683,6.86518 -10.9105,65.21926 -14.54734,129.29431c-6.06139,109.84296 -46.06657,307.78912 -70.31214,352.41282c-8.48595,14.87457 10.9105,38.90271 90.92087,114.41975c110.31732,105.26617 169.71895,201.37876 207.29958,340.97085c27.8824,100.68938 19.39645,351.26862 -15.75962,454.2464c-69.09986,203.66715 -257.00299,395.89233 -471.57624,478.27454c-70.31214,28.60494 -103.04365,33.18173 -226.69603,37.75852c-170.93123,5.72099 -259.42754,-8.00938 -379.44309,-60.64247c-106.68049,-45.7679 -181.84174,-104.12197 -248.51704,-189.93678l-49.70341,-65.21926l-76.37353,33.18173c-115.16643,49.20049 -241.24337,78.94963 -366.10803,86.95901l-112.74188,6.86518l-16.9719,38.90271c-43.64202,98.40098 -120.01555,152.17826 -215.78553,152.17826c-70.31214,0 -149.11022,-48.05629 -220.63464,-135.0153c-54.55252,-66.36345 -58.18936,-68.65185 -124.86466,-74.37284c-37.58063,-3.43259 -80.01036,-8.00938 -93.34543,-11.44197c-190.32768,-49.20049 -258.21527,-69.79605 -280.03628,-82.38222c-23.03329,-13.73037 -27.8824,-10.29778 -66.6753,37.75852c-70.31214,89.2474 -231.54515,202.52295 -341.86247,240.28147c-65.46303,21.73975 -208.51186,33.18173 -323.67829,24.02815zm1464.43212,-282.61678c13.33506,-29.74913 32.73151,-82.38222 44.8543,-116.70814c41.21746,-122.42913 157.59617,-252.86764 238.81881,-267.74221c61.82619,-11.44197 78.79809,-8.00938 117.59099,22.88395c54.55252,43.4795 52.12796,93.82419 -10.9105,171.62962c-26.67012,33.18173 -48.49113,64.07506 -48.49113,67.50765c0,26.31654 201.23819,-28.60494 367.32031,-101.83358c162.44529,-70.94024 263.06438,-131.58271 407.32549,-247.14665c258.21527,-204.81135 429.1465,-433.65084 532.19015,-709.40243c61.82619,-168.19703 87.28403,-286.04937 90.92087,-426.78566l2.42456,-113.27555l-127.28922,-43.4795c-70.31214,-22.88395 -136.98744,-46.9121 -147.89795,-51.48889c-19.39645,-8.00938 -21.82101,1.1442 -21.82101,105.26617c0,209.38814 -61.82619,348.98023 -218.21008,496.5817c-115.16643,107.55456 -193.96452,146.45728 -317.6169,155.61086c-213.36097,14.87457 -408.53777,-94.96839 -488.54813,-276.89579c-52.12796,-120.14073 -46.06657,-343.25924 13.33506,-471.40936c41.21746,-90.3916 133.35061,-205.95555 204.87502,-256.30023c81.22264,-58.35407 147.89795,-78.94963 250.9416,-78.94963c76.37353,0 83.6472,-2.28839 75.16125,-19.45136c-65.46303,-141.88049 -71.52442,-173.91802 -71.52442,-394.74813l0,-212.82073l-48.49113,-22.88395c-106.68049,-49.20049 -430.35878,-131.58271 -569.77078,-146.45728c-32.73151,-3.43259 -89.70859,-11.44197 -126.07694,-17.16296c-93.34543,-14.87457 -172.14351,-12.58617 -337.01335,6.86518c-287.30994,35.47012 -469.15168,84.67061 -700.69683,189.93678c-214.57325,96.11259 -448.54295,278.03999 -557.64799,433.65084c-64.25075,91.5358 -178.2049,338.68245 -208.51186,453.1022c-30.30696,113.27555 -29.09468,431.36245 1.21228,565.23355c29.09468,131.58271 82.43492,273.4632 135.77516,364.99899c105.46821,179.639 316.40462,408.4785 507.94459,549.21479c146.68567,108.69876 452.17979,244.85826 580.68128,259.73283c48.49113,4.57679 50.91569,3.43259 82.43492,-45.7679c38.7929,-60.64247 146.68567,-144.16888 185.47857,-144.16888c32.73151,0 90.92087,59.49827 90.92087,92.68c0,12.58617 -13.33506,48.05629 -30.30696,78.94963c-41.21746,77.80543 -40.00518,125.86172 7.27367,176.20641c19.39645,21.73975 43.64202,37.75852 53.34024,34.32592c8.48595,-3.43259 26.67012,-29.74913 40.00518,-59.49827zm1498.37591,-302.06813c65.46303,-18.30716 158.80845,-101.83358 184.26629,-163.62024c25.45784,-62.93086 18.18417,-170.48542 -14.54734,-221.97431c-12.12278,-19.45136 -25.45784,-35.47012 -29.09468,-35.47012c-3.63683,1.1442 -27.8824,35.47012 -54.55252,77.80543c-29.09468,44.6237 -103.04365,128.15012 -184.26629,204.81135c-75.16125,70.94024 -129.71377,131.58271 -123.65238,136.1595c49.70341,28.60494 124.86466,28.60494 221.84692,2.28839zm-2770.05579,1.1442c46.06657,-14.87457 47.27885,-24.02815 6.06139,-45.7679c-48.49113,-24.02815 -225.48375,-204.81135 -289.7345,-296.34715l-58.18936,-83.52642l-23.03329,43.4795c-31.51923,57.20987 -41.21746,154.46666 -21.82101,202.52295c53.34024,125.86172 146.68567,191.08098 273.97488,192.22518c41.21746,0 90.92087,-5.72099 112.74188,-12.58617zm2171.19034,-1036.64291c50.91569,-43.4795 61.82619,-110.98716 24.24556,-154.46666c-23.03329,-28.60494 -33.94379,-32.03753 -92.13315,-32.03753c-58.18936,0 -72.73669,4.57679 -103.04365,33.18173c-55.7648,53.77728 -46.06657,131.58271 23.03329,165.90863c52.12796,27.46074 106.68049,22.88395 147.89795,-12.58617zm1840.23838,-408.4785c77.58581,-21.73975 240.03109,-70.94024 360.04664,-109.84296c120.01555,-38.90271 253.36615,-80.09382 297.00817,-92.68c176.99262,-48.05629 400.05182,-128.15012 400.05182,-141.88049c0,-16.01876 -237.60654,-130.43851 -321.25374,-154.46666c-26.67012,-8.00938 -135.77516,-49.20049 -242.45565,-91.5358c-265.48894,-106.41037 -414.59916,-149.88987 -534.61471,-156.75505c-89.70859,-5.72099 -112.74188,-2.28839 -248.51704,36.61432c-82.43492,24.02815 -218.21008,67.50765 -301.85728,97.25679c-83.6472,30.89333 -206.0873,72.08444 -272.76261,91.5358c-66.6753,20.59555 -180.62946,58.35407 -254.57843,85.81481c-72.73669,26.31654 -158.80845,57.20987 -190.32768,67.50765c-32.73151,11.44197 -58.18936,24.02815 -58.18936,28.60494c0,13.73037 429.1465,168.19703 927.39286,334.10566c175.78035,58.35407 244.88021,59.49827 440.057,5.72099zm-1365.02531,-572.09874c88.49631,-21.73975 229.12059,-64.07506 312.76779,-92.68c83.6472,-29.74913 206.0873,-70.94024 272.76261,-91.5358c210.93641,-66.36345 427.93422,-141.88049 476.42535,-164.76444c63.03847,-29.74913 118.80327,-92.68 138.19972,-152.17826c24.24556,-75.51703 23.03329,-1302.09673 -1.21228,-1329.55747c-38.7929,-44.6237 -84.85948,-56.06568 -163.65756,-41.19111c-83.6472,14.87457 -591.59178,172.77382 -769.79669,239.13727c-64.25075,24.02815 -146.68567,52.63308 -183.05402,64.07506c-160.02073,49.20049 -243.66793,114.41975 -315.19234,249.43505l-36.36835,68.65185l0,562.94516c0,612.14565 2.42456,633.8854 69.09986,696.81626c16.9719,16.01876 32.73151,29.74913 35.15607,29.74913c2.42456,0 76.37353,-17.16296 164.86984,-38.90271zm2597.91228,25.17234c18.18417,-8.00938 43.64202,-37.75852 64.25075,-76.66123l32.73151,-64.07506l3.63683,-565.23355c3.63683,-621.29923 3.63683,-624.73182 -70.31214,-720.84441c-53.34024,-68.65185 -104.25593,-94.96839 -363.68347,-189.93678c-129.71377,-48.05629 -332.16424,-125.86172 -448.54295,-173.91802c-116.37871,-48.05629 -227.90831,-86.95901 -246.09248,-86.95901c-41.21746,0 -112.74188,60.64247 -128.50149,110.98716c-6.06139,19.45136 -15.75962,280.32838 -20.60873,578.96392c-8.48595,578.96392 -4.84911,640.75059 47.27885,719.70021c60.61391,93.82419 86.07176,110.98716 278.824,181.9274c310.34323,115.56395 739.48973,273.4632 778.28263,286.04937c20.60873,6.86518 37.58063,12.58617 38.7929,12.58617c1.21228,1.1442 16.9719,-4.57679 33.94379,-12.58617zm-5768.0199,-235.70468c42.42974,-32.03753 76.37353,-96.11259 76.37353,-146.45728c0,-58.35407 -50.91569,-156.75505 -98.19454,-188.79258c-58.18936,-38.90271 -109.10504,-40.04691 -153.95934,-4.57679c-83.6472,66.36345 -99.40682,160.18765 -41.21746,247.14665c70.31214,104.12197 153.95934,139.59209 216.99781,92.68zm2035.41518,-773.47749c202.45047,-25.17234 438.84473,-106.41037 538.25154,-185.35999l37.58063,-29.74913l-99.40682,-45.7679c-168.50668,-77.80543 -326.10285,-249.43505 -385.50448,-421.06467c-31.51923,-90.3916 -43.64202,-258.58863 -26.67012,-362.7106c15.75962,-94.96839 61.82619,-196.80197 111.5296,-243.71406l33.94379,-32.03753l-56.97708,-22.88395c-88.49631,-36.61432 -236.39426,-57.20987 -408.53777,-59.49827c-166.08212,-1.1442 -243.66793,9.15358 -363.68347,49.20049c-96.98226,30.89333 -107.89276,40.04691 -82.43492,62.93086c10.9105,10.29778 42.42974,62.93086 69.09986,116.70814l49.70341,97.25679l0,154.46666c0,131.58271 -3.63683,165.90863 -27.8824,229.98369c-54.55252,148.74567 -151.53478,273.4632 -306.7064,390.17134c-52.12796,40.04691 -95.76998,77.80543 -95.76998,84.67061c0,28.60494 197.60135,129.29431 351.56069,180.7832c157.59617,52.63308 415.81144,66.36345 661.90392,36.61432zm948.00159,-707.11404c25.45784,-17.16296 84.85948,-46.9121 134.56289,-67.50765c49.70341,-20.59555 83.6472,-40.04691 76.37353,-42.33531c-7.27367,-2.28839 -30.30696,-51.48889 -50.91569,-109.84296c-44.8543,-127.00592 -93.34543,-186.50419 -189.11541,-231.12789c-55.7648,-25.17234 -76.37353,-29.74913 -127.28922,-24.02815c-105.46821,12.58617 -208.51186,85.81481 -249.72932,176.20641c-21.82101,51.48889 -19.39645,149.88987 7.27367,203.66715c36.36835,76.66123 86.07176,121.28493 176.99262,160.18765l84.85948,36.61432l46.06657,-35.47012c26.67012,-19.45136 66.6753,-49.20049 90.92087,-66.36345zm-2205.13413,70.94024c150.3225,-72.08444 214.57325,-209.38814 168.50668,-359.27801c-21.82101,-69.79605 -122.4401,-160.18765 -203.66275,-183.0716c-58.18936,-16.01876 -70.31214,-16.01876 -128.50149,0c-87.28403,24.02815 -155.17162,73.22864 -197.60135,144.16888c-48.49113,80.09382 -56.97708,139.59209 -32.73151,219.68592c37.58063,120.14073 146.68567,200.23456 277.61172,201.37876c46.06657,0 86.07176,-8.00938 116.37871,-22.88395z"/>
    <path stroke="null" d="m2184.85208,8464.61111c-78.79809,-14.87457 -204.87502,-84.67061 -267.91349,-149.88987c-197.60135,-200.23456 -243.66793,-485.13973 -113.95416,-688.80688c124.86466,-195.65777 329.73968,-283.76097 541.88838,-235.70468c190.32768,42.33531 378.23081,237.99307 423.08511,440.51603c7.27367,34.32592 10.9105,112.13135 8.48595,172.77382c-3.63683,100.68938 -8.48595,118.99654 -49.70341,197.94616c-31.51923,60.64247 -65.46303,104.12197 -116.37871,148.74567c-103.04365,90.3916 -166.08212,115.56395 -292.15906,117.85234c-56.97708,1.1442 -116.37871,0 -133.35061,-3.43259zm229.12059,-259.73283c61.82619,-30.89333 77.58581,-101.83358 37.58063,-163.62024c-23.03329,-36.61432 -26.67012,-37.75852 -100.61909,-37.75852c-83.6472,0 -123.65238,18.30716 -143.04883,65.21926c-38.7929,97.25679 99.40682,187.64839 206.0873,136.1595z"/>
    <path stroke="null" d="m3073.45203,7881.0704c-14.54734,-2.28839 -40.00518,-20.59555 -56.97708,-38.90271c-16.9719,-18.30716 -37.58063,-33.18173 -47.27885,-33.18173c-9.69823,0 -40.00518,-22.88395 -67.88758,-52.63308c-44.8543,-44.6237 -50.91569,-56.06568 -43.64202,-88.10321c26.67012,-117.85234 155.17162,-194.51357 254.57843,-149.88987c41.21746,18.30716 46.06657,18.30716 90.92087,-1.1442c86.07176,-36.61432 195.1768,10.29778 243.66793,105.26617c30.30696,60.64247 23.03329,97.25679 -25.45784,130.43851c-56.97708,37.75852 -80.01036,37.75852 -118.80327,-2.28839c-31.51923,-32.03753 -40.00518,-35.47012 -55.7648,-22.88395c-10.9105,8.00938 -15.75962,19.45136 -12.12278,25.17234c3.63683,5.72099 0,10.29778 -7.27367,10.29778c-8.48595,0 -10.9105,9.15358 -6.06139,24.02815c4.84911,13.73037 9.69823,32.03753 10.9105,40.04691c1.21228,8.00938 7.27367,19.45136 13.33506,24.02815c4.84911,4.57679 6.06139,2.28839 1.21228,-4.57679c-4.84911,-8.00938 -2.42456,-14.87457 3.63683,-14.87457c25.45784,0 13.33506,30.89333 -16.9719,43.4795c-30.30696,13.73037 -105.46821,16.01876 -160.02073,5.72099z"/>
    <path stroke="null" d="m1752.06874,7442.84276c-14.54734,-5.72099 -35.15607,-22.88395 -47.27885,-38.90271c-18.18417,-27.46074 -18.18417,-32.03753 2.42456,-60.64247c31.51923,-46.9121 67.88758,-70.94024 105.46821,-72.08444c38.7929,0 81.22264,35.47012 81.22264,68.65185c0,37.75852 -31.51923,85.81481 -66.6753,100.68938c-36.36835,16.01876 -38.7929,16.01876 -75.16125,2.28839z"/>
    <path stroke="null" d="m5645.90647,7724.31534c-6.06139,-3.43259 -32.73151,-8.00938 -56.97708,-12.58617c-63.03847,-9.15358 -118.80327,-56.06568 -118.80327,-99.54518c0,-43.4795 53.34024,-94.96839 116.37871,-110.98716c77.58581,-20.59555 221.84692,-14.87457 281.24855,10.29778c106.68049,45.7679 104.25593,146.45728 -6.06139,189.93678c-38.7929,16.01876 -191.53996,30.89333 -215.78553,22.88395z"/>
    <path stroke="null" d="m5003.399,7548.10893c-90.92087,-14.87457 -151.53478,-59.49827 -151.53478,-110.98716c0,-68.65185 87.28403,-109.84296 236.39426,-112.13135c115.16643,-1.1442 166.08212,18.30716 196.38908,78.94963c19.39645,37.75852 19.39645,40.04691 -3.63683,70.94024c-13.33506,17.16296 -44.8543,40.04691 -69.09986,51.48889c-42.42974,19.45136 -152.74706,32.03753 -208.51186,21.73975z"/>
    <path stroke="null" d="m6288.41394,7529.80177c-111.5296,-29.74913 -146.68567,-113.27555 -72.73669,-175.06221c81.22264,-67.50765 286.09767,-66.36345 377.01853,2.28839c61.82619,45.7679 36.36835,125.86172 -50.91569,161.33184c-59.40163,24.02815 -184.26629,29.74913 -253.36615,11.44197z"/>
    <path stroke="null" d="m5666.5152,7347.87437c-53.34024,-16.01876 -111.5296,-70.94024 -111.5296,-104.12197c0,-66.36345 98.19454,-125.86172 206.0873,-123.57333c96.98226,1.1442 166.08212,22.88395 193.96452,59.49827c35.15607,45.7679 30.30696,77.80543 -16.9719,118.99654c-65.46303,59.49827 -174.56807,78.94963 -271.55033,49.20049z"/>
    <path stroke="null" d="m4502.72809,7011.48032c-80.01036,-36.61432 -112.74188,-114.41975 -87.28403,-205.95555c35.15607,-136.1595 175.78035,-204.81135 287.30994,-140.73629c77.58581,44.6237 101.83137,159.04345 54.55252,248.29085c-29.09468,53.77728 -56.97708,77.80543 -115.16643,100.68938c-55.7648,21.73975 -88.49631,21.73975 -139.412,-2.28839z"/>
    <path stroke="null" d="m5318.59135,6750.60329c-54.55252,-18.30716 -110.31732,-70.94024 -122.4401,-115.56395c-15.75962,-57.20987 38.7929,-165.90863 105.46821,-212.82073c41.21746,-28.60494 118.80327,-37.75852 174.56807,-20.59555c126.07694,38.90271 121.22782,255.15604 -8.48595,329.52887c-58.18936,32.03753 -94.5577,36.61432 -149.11022,19.45136z"/>
    <path stroke="null" d="m4894.29396,6488.58207c-86.07176,-36.61432 -124.86466,-132.72691 -92.13315,-227.6953c29.09468,-83.52642 158.80845,-156.75505 244.88021,-139.59209c86.07176,18.30716 143.04883,107.55456 126.07694,201.37876c-10.9105,61.78666 -70.31214,133.8711 -130.92605,160.18765c-59.40163,25.17234 -98.19454,26.31654 -147.89795,5.72099z"/>
    <path stroke="null" d="m4505.15264,6151.04381c-58.18936,-33.18173 -77.58581,-67.50765 -77.58581,-136.1595c0,-93.82419 42.42974,-159.04345 129.71377,-201.37876c80.01036,-37.75852 164.86984,-9.15358 209.72414,72.08444c27.8824,52.63308 30.30696,83.52642 10.9105,139.59209c-44.8543,123.57333 -173.35579,183.0716 -272.76261,125.86172z"/>
    <path stroke="null" d="m5290.70895,5935.93469c-81.22264,-37.75852 -118.80327,-132.72691 -83.6472,-210.53234c88.49631,-199.09036 334.5888,-213.96493 372.16942,-20.59555c31.51923,159.04345 -143.04883,298.63554 -288.52222,231.12789z"/>
    <path stroke="null" d="m6877.58117,7001.18254c-66.6753,-56.06568 -98.19454,-115.56395 -98.19454,-184.21579c0,-70.94024 31.51923,-128.15012 84.85948,-154.46666c54.55252,-27.46074 92.13315,-26.31654 151.53478,5.72099c64.25075,33.18173 109.10504,115.56395 107.89276,196.80197c-2.42456,100.68938 -53.34024,164.76444 -141.83655,173.91802c-48.49113,5.72099 -58.18936,2.28839 -104.25593,-37.75852z"/>
    <path stroke="null" d="m6199.91763,6778.06403c-106.68049,-50.34469 -157.59617,-188.79258 -105.46821,-284.90517c54.55252,-99.54518 156.38389,-113.27555 242.45565,-30.89333c155.17162,145.31308 44.8543,400.46912 -136.98744,315.7985z"/>
    <path stroke="null" d="m6555.11516,6520.6196c-87.28403,-44.6237 -130.92605,-114.41975 -132.13833,-210.53234c-2.42456,-140.73629 128.50149,-226.5511 243.66793,-161.33184c50.91569,29.74913 99.40682,110.98716 109.10504,180.7832c16.9719,138.44789 -109.10504,248.29085 -220.63464,191.08098z"/>
    <path stroke="null" d="m6880.00573,6189.94653c-143.04883,-108.69876 -123.65238,-322.66369 32.73151,-354.70122c76.37353,-16.01876 176.99262,72.08444 200.02591,175.06221c10.9105,52.63308 -14.54734,143.02468 -48.49113,173.91802c-19.39645,17.16296 -48.49113,27.46074 -87.28403,30.89333c-48.49113,3.43259 -64.25075,0 -96.98226,-25.17234z"/>
    <path stroke="null" d="m6178.09662,5953.09765c-101.83137,-65.21926 -138.19972,-170.48542 -90.92087,-266.59801c78.79809,-164.76444 249.72932,-132.72691 311.55551,59.49827c32.73151,99.54518 -3.63683,194.51357 -87.28403,227.6953c-56.97708,22.88395 -67.88758,20.59555 -133.35061,-20.59555z"/>
    <path stroke="null" d="m6052.01969,4811.18857c-36.36835,-4.57679 -134.56289,-10.29778 -218.21008,-11.44197c-83.6472,-1.1442 -161.23301,-4.57679 -172.14351,-9.15358c-10.9105,-4.57679 -31.51923,-22.88395 -46.06657,-40.04691c-30.30696,-35.47012 -26.67012,-68.65185 10.9105,-112.13135c20.60873,-25.17234 32.73151,-27.46074 214.57325,-34.32592c106.68049,-4.57679 236.39426,-11.44197 289.7345,-16.01876c88.49631,-6.86518 100.61909,-4.57679 139.412,19.45136c70.31214,44.6237 78.79809,112.13135 20.60873,175.06221c-21.82101,25.17234 -38.7929,30.89333 -99.40682,34.32592c-40.00518,2.28839 -103.04365,0 -139.412,-5.72099z"/>
    <path stroke="null" d="m6663.00792,4811.18857c-14.54734,-5.72099 -38.7929,-33.18173 -53.34024,-62.93086c-23.03329,-45.7679 -25.45784,-57.20987 -12.12278,-86.95901c25.45784,-56.06568 53.34024,-67.50765 175.78035,-67.50765c99.40682,0 113.95416,2.28839 135.77516,26.31654c43.64202,44.6237 52.12796,69.79605 38.7929,114.41975c-19.39645,67.50765 -59.40163,88.10321 -167.2944,86.95901c-50.91569,0 -104.25593,-4.57679 -117.59099,-10.29778z"/>
    <path stroke="null" d="m939.84232,4759.69968c-36.36835,-34.32592 -41.21746,-45.7679 -35.15607,-76.66123c9.69823,-48.05629 27.8824,-66.36345 88.49631,-91.5358c64.25075,-26.31654 123.65238,-18.30716 167.2944,22.88395c38.7929,36.61432 48.49113,74.37284 30.30696,116.70814c-21.82101,49.20049 -61.82619,68.65185 -140.62428,68.65185c-61.82619,0 -71.52442,-3.43259 -110.31732,-40.04691z"/>
   </g>
  </g>
 </g>
</svg>